<svg width="44" height="32" viewBox="0 0 44 32" fill="none" xmlns="http://www.w3.org/2000/svg">
    <path d="M31.9729 11.478C24.0879 11.478 21.9432 13.7227 21.9432 16.9041C21.9432 16.9041 22.6055 17.0172 22.8263 17.0495C22.7632 17.5339 22.779 18.0345 22.7948 18.519C22.5267 18.4867 22.2428 18.4383 21.9589 18.406C21.9589 21.6519 23.6779 23.1861 27.305 23.1861C28.1723 23.1861 30.112 22.7824 30.112 22.2817C30.112 21.8296 25.6176 23.7352 25.6176 18.4706C25.6176 11.7203 34.8903 12.7215 34.8903 12.1563C34.9061 11.6072 32.9979 11.478 31.9729 11.478ZM26.5165 22.6532C24.0721 22.6532 22.574 20.9737 22.574 19.0196L24.5768 19.2134C24.5768 21.9265 26.5953 22.6532 26.5165 22.6532ZM24.6556 16.6942L22.5109 16.4681C22.5109 13.5128 25.586 11.9786 31.5313 11.9786C28.8346 11.9786 24.6556 13.5936 24.6556 16.6942Z"
          fill="#2E3340"/>
    <path d="M27.1008 8.11963C20.5721 8.11963 14.1379 10.3321 14.1379 16.4525C14.1379 16.4525 15.1314 16.5979 15.4626 16.6302C15.368 17.373 15.3995 18.1482 15.4468 18.8911L14.1852 18.7134C14.1852 21.701 15.9673 25.9644 21.5656 25.9644C22.4645 25.9644 26.7066 25.173 26.7066 24.6401C26.7066 24.2041 25.7131 24.4463 25.3819 24.4463C20.8875 24.4463 19.8624 21.1681 19.8624 18.7619C19.8624 15.6289 20.7455 9.54075 35.1908 9.54075C35.3643 9.54075 36.3893 9.71839 36.3893 9.18547C36.3893 8.65255 31.6268 8.11963 27.1008 8.11963ZM22.7168 25.3184C22.1648 25.3991 21.5813 25.4476 21.0294 25.4476C17.4339 25.4476 14.7845 22.3631 14.7845 19.3432L18.3643 19.6824C18.3643 19.6824 18.6324 21.1842 18.7428 21.5234C18.8847 21.9594 19.0582 22.3793 19.2789 22.783C20.0359 24.1395 21.2502 25.0116 22.7168 25.3184ZM18.4904 16.4203L14.6899 16.0004C14.6899 11.2525 20.3671 8.58795 27.3058 8.58795C29.8921 8.58795 32.3522 8.91093 32.3522 8.91093C32.3522 8.91093 18.4904 9.5246 18.4904 16.4203Z"
          fill="#2E3340"/>
    <path d="M21.7727 3C11.6484 3 4 7.0559 4 14C4 14 5.5269 14.387 6 14.5C5.77922 15.6143 5.87662 16.5975 5.86085 17.7279L4 17.2758C4 28.5801 11.5223 29 15.7801 29C18.3191 29 22.4981 28.354 22.4981 27.7404C22.4981 27.3689 21.8673 27.5789 20.4953 27.5789C19.2968 27.5789 12.2319 27.2882 12.2319 19.0199C12.2319 8.31304 21.0315 5.95528 33.0324 5.95528C37.0696 5.95528 38 6.84348 38 6.03602C38.0157 5.06708 29.5788 3 21.7727 3ZM17.7041 28.5317C13.8877 28.5317 4.52041 29.1938 4.52041 17.9702C6.27087 18.4224 8.24211 18.8745 10.1818 19.1168C10.1976 27.7565 17.7041 28.5317 17.7041 28.5317ZM28.3015 4.7764C10.8757 4.7764 10.5918 14.7565 10.5918 14.7565C10.5918 14.7565 6.79128 14.0298 4.86735 13.4646C4.7885 13.4646 4.85158 3.62981 22.1985 3.62981C29.0269 3.62981 33.474 4.90559 33.474 4.90559C32.0705 4.8087 29.8627 4.7764 28.3015 4.7764Z"
          fill="#2E3340"/>
</svg>
